<svg xmlns="http://www.w3.org/2000/svg" xmlns:xlink="http://www.w3.org/1999/xlink" width="57px" zoomAndPan="magnify" preserveAspectRatio="xMidYMid meet" version="1.0" style="     background-color: #ecefff; " viewBox="112.5 127.23 150 150"><defs><g/><clipPath id="id1"><path d="M 112.5 127.230469 L 262.5 127.230469 L 262.5 277.230469 L 112.5 277.230469 Z M 112.5 127.230469 " clip-rule="nonzero"/></clipPath></defs><g clip-path="url(#id1)"><path fill="#000000" d="M 262.410156 201.617188 C 262.453125 214.972656 259.390625 226.925781 253.316406 238.070312 C 246.496094 250.582031 236.84375 260.394531 224.445312 267.429688 C 212.984375 273.933594 200.617188 277.265625 187.4375 277.152344 C 166.347656 276.964844 148.394531 269.214844 133.53125 254.261719 C 119.765625 239.5625 112.535156 222.167969 112.617188 202.003906 C 112.703125 181.433594 120.09375 163.679688 134.683594 149.164062 C 149.347656 134.574219 167.222656 127.40625 187.898438 127.3125 C 197.539062 127.265625 206.828125 129.191406 215.75 132.816406 C 225.167969 136.644531 233.472656 142.179688 240.648438 149.382812 C 246.695312 155.453125 251.578125 162.375 255.226562 170.128906 C 260.003906 180.292969 262.476562 190.992188 262.410156 201.617188 Z M 260.378906 202.546875 C 260.039062 182.308594 253.003906 165.136719 239.097656 150.800781 C 224.773438 136.796875 207.554688 129.753906 187.570312 129.339844 C 167.644531 129.734375 150.320312 136.550781 136.152344 150.664062 C 121.929688 164.832031 115.035156 182.195312 114.613281 202.199219 C 115 222.15625 122 239.371094 135.953125 253.707031 C 150.265625 267.628906 167.394531 274.761719 187.363281 275.070312 C 207.429688 274.8125 224.789062 267.859375 239 253.652344 C 253.140625 239.511719 259.984375 222.195312 260.378906 202.546875 Z M 260.378906 202.546875 " fill-opacity="1" fill-rule="nonzero"/></g><path fill="#000000" d="M 229.792969 148.578125 C 229.164062 148.976562 228.566406 149.34375 227.980469 149.726562 C 227.691406 149.914062 227.480469 149.875 227.199219 149.660156 C 223.371094 146.71875 219.230469 144.296875 214.851562 142.285156 C 211.636719 140.808594 208.3125 139.625 204.894531 138.6875 C 202.230469 137.953125 199.535156 137.390625 196.804688 136.996094 C 195.265625 136.773438 193.710938 136.636719 192.15625 136.519531 C 189.457031 136.3125 186.757812 136.390625 184.0625 136.4375 C 182.714844 136.464844 181.363281 136.621094 180.015625 136.789062 C 178.445312 136.984375 176.878906 137.199219 175.324219 137.492188 C 173.035156 137.921875 170.773438 138.476562 168.539062 139.140625 C 166.300781 139.808594 164.101562 140.582031 161.957031 141.496094 C 159.933594 142.359375 157.933594 143.277344 156.019531 144.367188 C 154.445312 145.261719 152.871094 146.144531 151.359375 147.15625 C 149.738281 148.238281 148.164062 149.378906 146.628906 150.574219 C 145.632812 151.355469 144.675781 152.1875 143.710938 153.007812 C 142.464844 154.066406 141.3125 155.226562 140.179688 156.398438 C 138.480469 158.160156 136.882812 160.007812 135.386719 161.945312 C 133.851562 163.941406 132.421875 166.003906 131.125 168.160156 C 129.652344 170.609375 128.316406 173.128906 127.1875 175.757812 C 126.285156 177.863281 125.441406 179.988281 124.753906 182.171875 C 123.847656 185.042969 123.109375 187.957031 122.617188 190.929688 C 122.332031 192.667969 122.117188 194.414062 121.925781 196.167969 C 121.582031 199.308594 121.617188 202.460938 121.71875 205.605469 C 121.785156 207.632812 121.980469 209.660156 122.332031 211.671875 C 122.511719 212.714844 122.636719 213.769531 122.867188 214.808594 C 122.921875 215.050781 122.902344 215.246094 122.664062 215.390625 C 122.121094 215.722656 121.585938 216.066406 121.046875 216.398438 C 120.777344 216.5625 120.65625 216.476562 120.585938 216.167969 C 120.3125 214.976562 120.121094 213.773438 119.929688 212.566406 C 119.78125 211.652344 119.664062 210.734375 119.542969 209.816406 C 119.480469 209.324219 119.4375 208.824219 119.414062 208.332031 C 119.371094 207.472656 119.210938 206.625 119.238281 205.761719 C 119.273438 204.582031 119.09375 203.410156 119.097656 202.230469 C 119.105469 200.800781 119.1875 199.375 119.273438 197.953125 C 119.40625 195.769531 119.664062 193.597656 120.011719 191.429688 C 120.644531 187.460938 121.617188 183.589844 122.925781 179.796875 C 123.703125 177.550781 124.617188 175.355469 125.621094 173.195312 C 127.121094 169.957031 128.894531 166.878906 130.882812 163.925781 C 132.429688 161.632812 134.113281 159.449219 135.929688 157.363281 C 137.4375 155.632812 139.003906 153.960938 140.675781 152.398438 C 143.011719 150.222656 145.472656 148.195312 148.097656 146.367188 C 149.265625 145.550781 150.4375 144.738281 151.65625 143.996094 C 152.585938 143.433594 153.53125 142.894531 154.484375 142.371094 C 155.976562 141.554688 157.484375 140.78125 159.035156 140.074219 C 161.863281 138.785156 164.765625 137.699219 167.738281 136.792969 C 170.164062 136.050781 172.621094 135.449219 175.113281 134.992188 C 176.511719 134.734375 177.917969 134.519531 179.332031 134.359375 C 181.109375 134.160156 182.886719 134.042969 184.671875 133.929688 C 186.238281 133.824219 187.800781 133.789062 189.359375 133.867188 C 191.429688 133.972656 193.507812 134.085938 195.574219 134.339844 C 198.925781 134.746094 202.222656 135.390625 205.480469 136.269531 C 208.457031 137.070312 211.363281 138.078125 214.203125 139.289062 C 216.039062 140.070312 217.832031 140.945312 219.601562 141.867188 C 222.863281 143.566406 225.941406 145.5625 228.863281 147.789062 C 229.136719 147.996094 229.40625 148.203125 229.671875 148.410156 C 229.703125 148.4375 229.722656 148.480469 229.792969 148.578125 Z M 157.449219 263.640625 C 158.636719 264.148438 159.785156 264.734375 160.980469 265.230469 C 163.867188 266.4375 166.820312 267.453125 169.84375 268.257812 C 173.234375 269.160156 176.667969 269.816406 180.160156 270.1875 C 181.597656 270.339844 183.042969 270.488281 184.480469 270.527344 C 186.789062 270.59375 189.101562 270.621094 191.414062 270.464844 C 193.332031 270.332031 195.242188 270.144531 197.144531 269.898438 C 199.097656 269.644531 201.023438 269.261719 202.941406 268.820312 C 205.566406 268.21875 208.144531 267.445312 210.683594 266.535156 C 212.796875 265.777344 214.859375 264.902344 216.890625 263.949219 C 218.304688 263.28125 219.703125 262.578125 221.058594 261.796875 C 222.296875 261.085938 223.550781 260.394531 224.730469 259.59375 C 226.804688 258.183594 228.855469 256.730469 230.792969 255.128906 C 232.210938 253.960938 233.589844 252.753906 234.914062 251.488281 C 235.832031 250.613281 236.703125 249.6875 237.574219 248.761719 C 239.242188 246.996094 240.78125 245.128906 242.242188 243.195312 C 244.347656 240.410156 246.210938 237.460938 247.84375 234.371094 C 248.765625 232.625 249.621094 230.851562 250.394531 229.03125 C 251.644531 226.089844 252.691406 223.078125 253.523438 219.988281 C 254.128906 217.761719 254.628906 215.511719 254.984375 213.234375 C 255.230469 211.652344 255.449219 210.0625 255.589844 208.464844 C 255.648438 207.761719 255.636719 207.058594 255.730469 206.367188 C 255.921875 204.964844 255.804688 203.558594 255.839844 202.152344 C 255.847656 201.796875 255.71875 201.722656 255.4375 201.894531 C 254.835938 202.261719 254.253906 202.652344 253.65625 203.019531 C 253.453125 203.144531 253.394531 203.308594 253.386719 203.53125 C 253.324219 205.40625 253.195312 207.273438 253.007812 209.144531 C 252.855469 210.652344 252.671875 212.15625 252.398438 213.640625 C 251.90625 216.332031 251.265625 218.988281 250.460938 221.609375 C 249.59375 224.429688 248.550781 227.183594 247.3125 229.855469 C 245.585938 233.585938 243.535156 237.128906 241.140625 240.480469 C 239.214844 243.175781 237.097656 245.707031 234.800781 248.089844 C 233.855469 249.070312 232.882812 250.019531 231.867188 250.925781 C 230.789062 251.894531 229.695312 252.847656 228.5625 253.75 C 226.792969 255.15625 224.949219 256.46875 223.050781 257.703125 C 221.816406 258.511719 220.527344 259.21875 219.246094 259.941406 C 216.910156 261.253906 214.476562 262.359375 212 263.375 C 209.546875 264.382812 207.027344 265.195312 204.464844 265.882812 C 202.804688 266.328125 201.132812 266.726562 199.4375 267.015625 C 197.703125 267.3125 195.960938 267.5625 194.207031 267.753906 C 192.472656 267.941406 190.734375 268.011719 189 268.09375 C 187.578125 268.160156 186.148438 268.132812 184.71875 268.023438 C 183.390625 267.921875 182.058594 267.871094 180.730469 267.734375 C 179.042969 267.5625 177.367188 267.335938 175.699219 267.03125 C 172.980469 266.539062 170.308594 265.875 167.671875 265.039062 C 164.992188 264.1875 162.371094 263.191406 159.824219 261.996094 C 159.617188 261.898438 159.410156 261.78125 159.179688 261.921875 C 158.457031 262.375 157.730469 262.832031 156.902344 263.351562 C 157.171875 263.496094 157.304688 263.578125 157.449219 263.640625 Z M 157.449219 263.640625 " fill-opacity="1" fill-rule="nonzero"/><path fill="#000000" d="M 175.222656 241.113281 C 175.226562 243.234375 174.554688 244.894531 173.445312 246.425781 C 172.753906 247.371094 171.953125 248.171875 171 248.847656 C 169.902344 249.621094 168.703125 250.082031 167.382812 250.285156 C 165.492188 250.570312 163.75 250.078125 162.054688 249.328125 C 161.476562 249.074219 160.921875 248.769531 160.371094 248.449219 C 159.257812 247.808594 158.6875 246.699219 157.925781 245.761719 C 156.613281 244.148438 155.320312 242.519531 153.964844 240.941406 C 152.265625 238.96875 150.523438 237.035156 148.746094 235.132812 C 147.136719 233.40625 145.457031 231.75 143.773438 230.101562 C 142.660156 229.011719 141.496094 227.960938 140.261719 227.007812 C 138.625 225.742188 136.796875 224.886719 134.644531 224.925781 C 133.582031 224.945312 132.652344 225.316406 131.765625 225.839844 C 131.261719 226.140625 130.769531 226.476562 130.382812 226.929688 C 130.113281 227.242188 129.761719 227.460938 129.4375 227.703125 C 129.007812 228.027344 128.347656 228.027344 128.042969 227.75 C 127.6875 227.425781 127.617188 226.898438 127.851562 226.371094 C 128.019531 225.992188 128.253906 225.667969 128.554688 225.378906 C 129.59375 224.375 130.765625 223.59375 132.167969 223.175781 C 133.949219 222.648438 135.597656 223.054688 137.230469 223.789062 C 139.257812 224.699219 141.015625 225.996094 142.714844 227.390625 C 144.996094 229.257812 147.125 231.292969 149.148438 233.4375 C 150.867188 235.265625 152.597656 237.089844 154.121094 239.09375 C 155.09375 240.371094 156.015625 241.683594 156.984375 242.964844 C 157.628906 243.8125 158.355469 244.59375 159.140625 245.3125 C 159.582031 245.714844 160.0625 245.757812 160.582031 245.476562 C 160.941406 245.28125 161.269531 245.046875 161.578125 244.777344 C 162.761719 243.757812 163.957031 242.753906 165.144531 241.742188 C 166.113281 240.921875 167.074219 240.097656 168.042969 239.28125 C 169.113281 238.378906 170.199219 237.492188 171.261719 236.578125 C 171.65625 236.238281 172.042969 235.886719 172.46875 235.582031 C 173.03125 235.175781 173.050781 235.175781 173.449219 235.777344 C 174.121094 236.808594 174.640625 237.910156 174.9375 239.113281 C 175.117188 239.839844 175.273438 240.570312 175.222656 241.113281 Z M 175.222656 241.113281 " fill-opacity="1" fill-rule="nonzero"/><path fill="#000000" d="M 189.609375 255.449219 C 187.667969 255.519531 186.105469 254.855469 184.699219 253.714844 C 184.152344 253.269531 183.652344 252.78125 183.179688 252.261719 C 182.207031 251.199219 181.890625 249.914062 181.886719 248.507812 C 181.882812 247.480469 181.964844 246.492188 182.351562 245.511719 C 183.066406 243.691406 184.335938 242.402344 186.015625 241.484375 C 187.644531 240.59375 189.421875 240.152344 191.222656 239.789062 C 192.445312 239.546875 193.683594 239.453125 194.914062 239.285156 C 195.5625 239.195312 196.226562 239.167969 196.875 239.144531 C 198.527344 239.09375 200.179688 238.984375 201.832031 238.957031 C 203.773438 238.921875 205.71875 238.820312 207.613281 238.308594 C 208.757812 238 209.828125 237.503906 210.917969 237.0625 C 213.121094 236.171875 215.316406 235.257812 217.511719 234.347656 C 219.582031 233.488281 221.652344 232.625 223.71875 231.761719 C 224.703125 231.351562 225.699219 231.113281 226.738281 231.574219 C 226.9375 231.660156 227.070312 231.535156 227.238281 231.460938 C 227.773438 231.222656 228.300781 230.976562 228.921875 231.246094 C 229.867188 231.652344 230.105469 232.746094 229.378906 233.472656 C 229.347656 233.503906 229.316406 233.535156 229.285156 233.566406 C 228.929688 233.902344 228.351562 233.941406 228.078125 234.296875 C 227.789062 234.667969 227.542969 235.070312 227.191406 235.390625 C 226.875 235.675781 226.460938 235.753906 226.089844 235.90625 C 223.070312 237.132812 220.050781 238.371094 217.015625 239.554688 C 214.925781 240.371094 212.855469 241.230469 210.777344 242.066406 C 209.234375 242.691406 207.863281 243.609375 206.535156 244.601562 C 205.007812 245.75 203.6875 247.121094 202.292969 248.410156 C 200.328125 250.226562 198.214844 251.855469 195.894531 253.203125 C 194.621094 253.945312 193.308594 254.609375 191.902344 255.078125 C 191.117188 255.335938 190.332031 255.511719 189.609375 255.449219 Z M 208.316406 241.296875 C 208.371094 241.28125 208.429688 241.261719 208.488281 241.246094 C 208.46875 241.222656 208.453125 241.199219 208.4375 241.175781 C 208.390625 241.210938 208.34375 241.246094 208.300781 241.28125 C 208.28125 241.304688 208.257812 241.328125 208.238281 241.351562 C 208.265625 241.332031 208.289062 241.316406 208.316406 241.296875 Z M 183.761719 250.960938 C 184.691406 250.921875 185.597656 250.71875 186.507812 250.570312 C 188.503906 250.242188 190.421875 249.667969 192.273438 248.839844 C 194.609375 247.792969 196.875 246.605469 199.148438 245.4375 C 201.46875 244.25 203.757812 243.015625 206.0625 241.796875 C 206.199219 241.726562 206.347656 241.652344 206.457031 241.542969 C 206.546875 241.449219 206.515625 241.328125 206.359375 241.300781 C 206.222656 241.277344 206.09375 241.324219 205.960938 241.363281 C 205.3125 241.554688 204.660156 241.742188 204.003906 241.921875 C 199.417969 243.164062 194.867188 244.527344 190.367188 246.050781 C 187.652344 246.972656 185.214844 248.375 182.988281 250.160156 C 182.796875 250.3125 182.628906 250.433594 182.777344 250.714844 C 182.90625 250.960938 183.046875 251.125 183.359375 251.003906 C 183.480469 250.957031 183.628906 250.972656 183.761719 250.960938 Z M 209.074219 239.476562 C 208.820312 238.554688 208.753906 238.480469 207.988281 238.742188 C 206.386719 239.300781 204.710938 239.363281 203.046875 239.492188 C 201.785156 239.585938 200.515625 239.484375 199.246094 239.621094 C 198.285156 239.726562 197.308594 239.667969 196.332031 239.753906 C 195.253906 239.847656 194.171875 239.90625 193.097656 240.054688 C 191.054688 240.335938 189.035156 240.726562 187.132812 241.554688 C 185.0625 242.460938 183.429688 243.8125 182.769531 246.082031 C 182.550781 246.828125 182.378906 247.59375 182.457031 248.433594 C 182.941406 248.214844 183.121094 247.769531 183.425781 247.453125 C 184.246094 246.601562 185.136719 245.832031 186.066406 245.109375 C 186.957031 244.417969 187.894531 243.777344 188.976562 243.394531 C 190.234375 242.949219 191.519531 242.59375 192.816406 242.292969 C 194.511719 241.894531 196.21875 241.570312 197.933594 241.285156 C 199.46875 241.03125 201.003906 240.761719 202.539062 240.515625 C 203.855469 240.304688 205.175781 240.121094 206.488281 239.917969 C 207.351562 239.78125 208.210938 239.625 209.074219 239.476562 Z M 184.859375 253.050781 C 185.050781 253.410156 185.382812 253.566406 185.679688 253.757812 C 187.558594 254.992188 189.570312 255.257812 191.710938 254.5625 C 192.921875 254.171875 194.054688 253.613281 195.160156 252.988281 C 197.898438 251.441406 200.367188 249.546875 202.59375 247.339844 C 204.371094 245.582031 206.265625 243.980469 208.390625 242.664062 C 208.890625 242.351562 209.425781 242.101562 209.949219 241.832031 C 210.175781 241.714844 210.238281 241.570312 210.101562 241.339844 C 209.96875 241.113281 209.792969 241.09375 209.585938 241.203125 C 209.445312 241.277344 209.320312 241.375 209.1875 241.464844 C 206.828125 243.023438 204.476562 244.59375 202.109375 246.140625 C 199.632812 247.757812 197.191406 249.441406 194.636719 250.949219 C 192.285156 252.339844 189.773438 253.109375 187.039062 253.128906 C 186.316406 253.132812 185.59375 253.164062 184.859375 253.050781 Z M 183.363281 251.5625 C 183.664062 251.980469 183.859375 252.414062 184.335938 252.429688 C 184.96875 252.457031 185.585938 252.621094 186.226562 252.597656 C 187.109375 252.570312 187.992188 252.613281 188.871094 252.46875 C 189.832031 252.308594 190.785156 252.128906 191.699219 251.777344 C 193.445312 251.113281 195.035156 250.152344 196.589844 249.136719 C 198.273438 248.035156 199.9375 246.90625 201.621094 245.800781 C 203.628906 244.484375 205.644531 243.179688 207.652344 241.863281 C 207.78125 241.78125 207.996094 241.730469 207.96875 241.476562 C 207.710938 241.449219 207.53125 241.601562 207.339844 241.703125 C 206 242.410156 204.664062 243.136719 203.316406 243.839844 C 201.714844 244.679688 200.09375 245.488281 198.496094 246.339844 C 196.714844 247.285156 194.90625 248.179688 193.089844 249.050781 C 190.441406 250.316406 187.660156 251.027344 184.765625 251.386719 C 184.332031 251.441406 183.878906 251.464844 183.363281 251.5625 Z M 207.402344 240.429688 C 207.300781 240.316406 207.210938 240.324219 207.128906 240.339844 C 206.371094 240.453125 205.613281 240.582031 204.855469 240.683594 C 203.671875 240.847656 202.496094 241.0625 201.316406 241.269531 C 200.007812 241.503906 198.6875 241.691406 197.375 241.914062 C 195.707031 242.195312 194.042969 242.519531 192.398438 242.925781 C 190.886719 243.300781 189.359375 243.65625 187.988281 244.441406 C 185.855469 245.660156 184.191406 247.425781 182.546875 249.203125 C 182.378906 249.382812 182.523438 249.527344 182.65625 249.679688 C 182.972656 249.464844 183.296875 249.253906 183.605469 249.027344 C 184.59375 248.304688 185.621094 247.652344 186.691406 247.058594 C 188.203125 246.214844 189.832031 245.664062 191.460938 245.121094 C 193.519531 244.433594 195.589844 243.773438 197.675781 243.179688 C 200.066406 242.496094 202.457031 241.820312 204.851562 241.140625 C 205.691406 240.902344 206.539062 240.671875 207.402344 240.429688 Z M 226.675781 232.246094 C 226.417969 231.953125 226.140625 231.902344 225.839844 231.878906 C 225.011719 231.808594 224.289062 232.132812 223.554688 232.4375 C 221.257812 233.390625 218.957031 234.339844 216.660156 235.292969 C 214.402344 236.230469 212.144531 237.160156 209.890625 238.101562 C 209.476562 238.273438 209.449219 238.449219 209.703125 239.03125 C 209.855469 239.382812 209.875 239.382812 210.328125 239.191406 C 212.082031 238.453125 213.824219 237.691406 215.589844 236.988281 C 218.871094 235.6875 222.097656 234.257812 225.347656 232.886719 C 225.777344 232.707031 226.25 232.589844 226.675781 232.246094 Z M 211.234375 241.28125 C 211.292969 241.257812 211.402344 241.222656 211.503906 241.183594 C 212.871094 240.636719 214.234375 240.085938 215.601562 239.539062 C 219.128906 238.125 222.660156 236.710938 226.191406 235.300781 C 226.597656 235.136719 226.957031 234.90625 227.226562 234.5625 C 227.382812 234.371094 227.597656 234.128906 227.445312 233.898438 C 227.28125 233.652344 227.019531 233.886719 226.828125 233.957031 C 224.660156 234.75 222.492188 235.546875 220.335938 236.371094 C 217.929688 237.292969 215.523438 238.222656 213.167969 239.277344 C 212.382812 239.628906 211.605469 240.003906 210.828125 240.371094 C 210.710938 240.425781 210.558594 240.457031 210.527344 240.617188 C 210.484375 240.867188 210.90625 241.292969 211.234375 241.28125 Z M 228.242188 233.515625 C 228.40625 233.523438 228.792969 233.296875 228.980469 233.078125 C 229.332031 232.679688 229.285156 232.160156 228.878906 231.84375 C 228.5625 231.597656 227.808594 231.664062 227.574219 231.957031 C 227.511719 232.035156 227.496094 232.121094 227.53125 232.207031 C 227.675781 232.585938 227.828125 232.960938 227.980469 233.335938 C 228.027344 233.445312 228.117188 233.511719 228.242188 233.515625 Z M 207.9375 240.265625 C 207.902344 240.25 207.867188 240.21875 207.832031 240.21875 C 207.796875 240.21875 207.757812 240.25 207.722656 240.269531 C 207.757812 240.285156 207.796875 240.316406 207.832031 240.316406 C 207.867188 240.316406 207.902344 240.285156 207.9375 240.265625 Z M 206.878906 241.214844 C 206.890625 241.230469 206.902344 241.261719 206.914062 241.257812 C 206.945312 241.25 206.976562 241.234375 207.011719 241.222656 C 207 241.207031 206.984375 241.179688 206.976562 241.179688 C 206.941406 241.1875 206.910156 241.203125 206.878906 241.214844 Z M 206.878906 241.214844 " fill-opacity="1" fill-rule="nonzero"/><path fill="#000000" d="M 186.65625 194.433594 C 186.023438 193.359375 185.34375 192.316406 184.824219 191.175781 C 184.257812 189.9375 183.742188 188.683594 183.460938 187.347656 C 183.433594 187.214844 183.398438 187.082031 183.394531 186.949219 C 183.363281 186.320312 183.71875 185.804688 184.234375 185.722656 C 184.972656 185.609375 185.550781 185.945312 185.675781 186.636719 C 185.984375 188.359375 186.714844 189.914062 187.535156 191.429688 C 188.214844 192.6875 189.03125 193.855469 189.941406 194.960938 C 190.632812 195.800781 191.359375 196.617188 192.136719 197.371094 C 194.207031 199.375 196.5 201.109375 199.011719 202.539062 C 200.628906 203.457031 202.273438 204.328125 203.949219 205.128906 C 206.035156 206.125 208.152344 207.046875 210.289062 207.933594 C 213.175781 209.132812 216.109375 210.203125 219.054688 211.25 C 219.183594 211.296875 219.320312 211.304688 219.449219 211.355469 C 220.003906 211.5625 220.316406 212.292969 220.109375 212.890625 C 219.917969 213.429688 219.214844 213.753906 218.652344 213.546875 C 216.332031 212.707031 213.996094 211.902344 211.699219 211.003906 C 209.71875 210.226562 207.777344 209.34375 205.820312 208.507812 C 204.113281 207.777344 202.429688 206.984375 200.785156 206.113281 C 198.382812 204.839844 196.007812 203.527344 193.84375 201.855469 C 192.625 200.914062 191.453125 199.921875 190.347656 198.847656 C 189.984375 198.492188 189.582031 198.238281 189.117188 198.027344 C 187.199219 197.148438 185.230469 196.402344 183.234375 195.734375 C 180.917969 194.953125 178.5625 194.308594 176.125 194 C 175.160156 193.875 174.191406 193.738281 173.226562 193.769531 C 170.9375 193.839844 168.675781 194.125 166.484375 194.847656 C 166.066406 194.988281 165.746094 195.152344 165.691406 195.640625 C 165.660156 195.917969 165.496094 196.136719 165.3125 196.347656 C 164.460938 197.328125 163.765625 198.410156 163.121094 199.535156 C 162.195312 201.148438 161.441406 202.84375 160.792969 204.589844 C 160.097656 206.460938 159.527344 208.378906 159.316406 210.355469 C 159.164062 211.785156 159.148438 213.246094 159.480469 214.6875 C 159.609375 215.230469 159.675781 215.796875 159.800781 216.347656 C 159.875 216.6875 160.050781 216.804688 160.367188 216.78125 C 161.199219 216.722656 162.035156 216.667969 162.871094 216.601562 C 163.726562 216.53125 164.578125 216.40625 165.433594 216.390625 C 167.316406 216.359375 169.203125 216.332031 171.085938 216.398438 C 172.027344 216.433594 172.976562 216.503906 173.921875 216.601562 C 174.886719 216.699219 175.855469 216.777344 176.820312 216.894531 C 178.800781 217.136719 180.742188 217.546875 182.664062 218.058594 C 185.359375 218.777344 187.96875 219.753906 190.53125 220.839844 C 193.8125 222.226562 196.996094 223.8125 200.132812 225.496094 C 202.007812 226.503906 203.867188 227.542969 205.683594 228.652344 C 206.246094 228.996094 206.8125 229.324219 207.375 229.664062 C 208.175781 230.140625 208.25 231.066406 207.53125 231.625 C 207.136719 231.933594 206.773438 231.964844 206.335938 231.703125 C 205.28125 231.082031 204.242188 230.4375 203.183594 229.824219 C 199.914062 227.921875 196.574219 226.144531 193.148438 224.535156 C 191.160156 223.601562 189.148438 222.722656 187.09375 221.949219 C 184.441406 220.953125 181.761719 220.078125 178.960938 219.589844 C 177.3125 219.304688 175.660156 219.09375 173.996094 218.921875 C 171.125 218.625 168.25 218.621094 165.371094 218.707031 C 164.089844 218.742188 162.796875 218.835938 161.519531 218.96875 C 161.003906 219.023438 160.480469 219.046875 159.96875 219.144531 C 158.433594 219.429688 158.210938 218.976562 157.839844 217.875 C 157.453125 216.722656 157.25 215.515625 157.085938 214.300781 C 156.921875 213.101562 156.929688 211.898438 156.988281 210.703125 C 157.058594 209.351562 157.359375 208.019531 157.722656 206.714844 C 157.957031 205.863281 158.226562 205.023438 158.511719 204.1875 C 158.617188 203.886719 158.550781 203.742188 158.285156 203.59375 C 156.59375 202.660156 154.984375 201.601562 153.511719 200.363281 C 152.386719 199.417969 151.292969 198.433594 150.328125 197.308594 C 149.324219 196.136719 148.355469 194.945312 147.519531 193.648438 C 146.46875 192.023438 145.703125 190.269531 145.082031 188.4375 C 144.554688 186.886719 144.1875 185.296875 144.070312 183.679688 C 143.945312 182.015625 143.96875 180.34375 144.125 178.667969 C 144.269531 177.082031 144.570312 175.539062 144.988281 174.015625 C 145.78125 171.140625 146.855469 168.378906 148.539062 165.894531 C 150.832031 162.519531 153.894531 160.101562 157.703125 158.617188 C 159.546875 157.894531 161.457031 157.40625 163.410156 157.171875 C 165.179688 156.957031 166.964844 156.738281 168.757812 156.863281 C 171.054688 157.027344 173.359375 157.15625 175.617188 157.648438 C 175.980469 157.726562 176.265625 157.640625 176.535156 157.363281 C 178.449219 155.398438 180.699219 153.875 183.050781 152.503906 C 184.972656 151.386719 187.023438 150.550781 189.148438 149.882812 C 190.640625 149.410156 192.167969 149.113281 193.703125 148.859375 C 194.304688 148.757812 194.917969 148.691406 195.523438 148.691406 C 196.050781 148.6875 196.558594 148.527344 197.078125 148.558594 C 199.015625 148.679688 200.953125 148.753906 202.871094 149.152344 C 206.976562 150 210.75 151.640625 214.328125 153.785156 C 216.589844 155.144531 218.683594 156.726562 220.492188 158.652344 C 221.75 159.988281 222.839844 161.457031 223.75 163.0625 C 224.890625 165.078125 225.648438 167.214844 226.054688 169.484375 C 226.167969 170.128906 226.257812 170.785156 226.269531 171.433594 C 226.285156 172.632812 226.386719 173.839844 226.152344 175.03125 C 226.074219 175.421875 226.21875 175.652344 226.597656 175.816406 C 227.886719 176.371094 229.15625 176.976562 230.371094 177.6875 C 231.917969 178.597656 233.367188 179.636719 234.6875 180.851562 C 236.027344 182.078125 237.257812 183.394531 238.238281 184.9375 C 239.664062 187.183594 240.605469 189.601562 241.007812 192.246094 C 241.179688 193.367188 241.027344 194.5 241.230469 195.613281 C 240.996094 198.347656 240.535156 201.027344 239.5625 203.617188 C 239.050781 204.976562 238.492188 206.308594 237.855469 207.605469 C 237.304688 208.726562 236.578125 209.746094 235.792969 210.710938 C 234.589844 212.195312 233.21875 213.515625 231.699219 214.671875 C 230.472656 215.609375 229.171875 216.429688 227.8125 217.164062 C 225.695312 218.308594 223.480469 219.234375 221.210938 220.011719 C 219.003906 220.761719 216.738281 221.3125 214.453125 221.765625 C 213.277344 221.996094 212.09375 222.164062 210.90625 222.324219 C 210.515625 222.375 210.109375 222.433594 209.75 222.109375 C 209.355469 221.753906 209.152344 221.363281 209.300781 220.847656 C 209.457031 220.316406 209.890625 220.113281 210.382812 220.054688 C 212.582031 219.785156 214.757812 219.402344 216.910156 218.851562 C 219.898438 218.089844 222.8125 217.121094 225.582031 215.75 C 227.550781 214.777344 229.414062 213.628906 231.101562 212.195312 C 232.859375 210.703125 234.402344 209.03125 235.558594 207.027344 C 236.285156 205.769531 236.828125 204.421875 237.332031 203.0625 C 237.90625 201.507812 238.347656 199.917969 238.636719 198.289062 C 238.738281 197.691406 238.859375 197.085938 238.828125 196.46875 C 238.804688 195.96875 238.949219 195.46875 238.921875 194.984375 C 238.882812 194.332031 238.886719 193.667969 238.796875 193.023438 C 238.632812 191.882812 238.417969 190.746094 238.023438 189.65625 C 237.414062 187.960938 236.558594 186.40625 235.449219 184.980469 C 233.695312 182.726562 231.511719 181 229.054688 179.589844 C 227.714844 178.820312 226.332031 178.148438 224.875 177.632812 C 223.964844 177.308594 223.566406 176.539062 223.746094 175.585938 C 224.113281 173.675781 224.070312 171.769531 223.761719 169.851562 C 223.367188 167.394531 222.453125 165.144531 221.089844 163.085938 C 219.984375 161.421875 218.675781 159.929688 217.144531 158.625 C 215.757812 157.449219 214.289062 156.394531 212.726562 155.472656 C 209.9375 153.835938 207.003906 152.519531 203.867188 151.71875 C 202.183594 151.289062 200.464844 151.054688 198.714844 150.933594 C 197.527344 150.851562 196.359375 150.914062 195.199219 151.007812 C 193.167969 151.167969 191.179688 151.589844 189.242188 152.253906 C 187.414062 152.878906 185.664062 153.664062 183.992188 154.625 C 182.535156 155.460938 181.136719 156.382812 179.84375 157.453125 C 179.535156 157.707031 179.148438 157.878906 178.964844 158.265625 C 179.082031 158.414062 179.234375 158.441406 179.390625 158.480469 C 181.773438 159.035156 184.085938 159.824219 186.375 160.6875 C 187.039062 160.9375 187.402344 161.46875 187.300781 162.019531 C 187.15625 162.800781 186.4375 163.226562 185.640625 162.90625 C 184.632812 162.496094 183.605469 162.148438 182.578125 161.796875 C 180.90625 161.222656 179.203125 160.773438 177.480469 160.386719 C 176.535156 160.175781 175.597656 159.921875 174.628906 159.8125 C 173.550781 159.6875 172.488281 159.476562 171.402344 159.394531 C 169.960938 159.289062 168.519531 159.117188 167.070312 159.171875 C 163.609375 159.304688 160.222656 159.835938 157.070312 161.367188 C 155.828125 161.976562 154.6875 162.753906 153.617188 163.636719 C 151.09375 165.714844 149.464844 168.402344 148.273438 171.386719 C 147.441406 173.46875 146.832031 175.625 146.507812 177.847656 C 146.410156 178.515625 146.308594 179.191406 146.320312 179.875 C 146.335938 180.835938 146.242188 181.796875 146.300781 182.769531 C 146.4375 184.988281 146.953125 187.101562 147.777344 189.148438 C 148.707031 191.464844 150.054688 193.511719 151.6875 195.394531 C 153.757812 197.78125 156.21875 199.679688 158.894531 201.324219 C 159.40625 201.640625 159.554688 201.605469 159.769531 201.070312 C 160.285156 199.808594 161.03125 198.667969 161.667969 197.46875 C 161.71875 197.371094 161.800781 197.285156 161.84375 197.183594 C 161.867188 197.128906 161.863281 197.039062 161.832031 196.988281 C 161.777344 196.890625 161.683594 196.914062 161.597656 196.957031 C 160.953125 197.285156 160.347656 197.6875 159.757812 198.101562 C 159.507812 198.277344 159.253906 198.394531 158.941406 198.394531 C 158.402344 198.394531 158.074219 198.199219 157.871094 197.730469 C 157.664062 197.253906 157.746094 196.789062 158.164062 196.445312 C 158.871094 195.875 159.648438 195.402344 160.441406 194.964844 C 162.652344 193.742188 164.96875 192.78125 167.4375 192.207031 C 168.78125 191.894531 170.140625 191.671875 171.515625 191.570312 C 172.035156 191.53125 172.546875 191.449219 173.070312 191.449219 C 174.570312 191.453125 176.046875 191.636719 177.519531 191.882812 C 180.046875 192.308594 182.492188 193.058594 184.914062 193.886719 C 185.488281 194.085938 186.027344 194.398438 186.652344 194.4375 C 186.65625 194.453125 186.660156 194.472656 186.671875 194.488281 C 186.675781 194.496094 186.695312 194.492188 186.710938 194.496094 C 186.691406 194.476562 186.671875 194.453125 186.65625 194.433594 Z M 218.183594 197.96875 C 218.566406 197.824219 218.875 197.6875 219.199219 197.589844 C 220.246094 197.273438 221.214844 197.417969 222.046875 198.167969 C 222.921875 198.949219 223.207031 199.925781 222.910156 201.058594 C 222.59375 202.265625 222.015625 203.277344 220.792969 203.789062 C 220.308594 203.996094 219.800781 204.089844 219.277344 204.097656 C 218.578125 204.105469 217.871094 203.992188 217.179688 204.011719 C 216.109375 204.042969 215.011719 204.109375 213.984375 204.523438 C 213.554688 204.695312 213.484375 204.660156 213.5 204.230469 C 213.550781 202.757812 213.035156 201.4375 212.457031 200.125 C 212.121094 199.359375 211.824219 198.585938 211.828125 197.714844 C 211.828125 197.027344 211.96875 196.414062 212.367188 195.863281 C 213.160156 194.773438 214.132812 193.964844 215.578125 194.035156 C 216.5 194.078125 217.246094 194.5 217.703125 195.296875 C 218.128906 196.03125 218.351562 196.835938 218.148438 197.703125 C 218.132812 197.761719 218.164062 197.832031 218.183594 197.96875 Z M 219.792969 188.617188 C 218.605469 188.085938 217.410156 189.089844 217.425781 190.21875 C 217.441406 191.515625 218.136719 192.398438 219.433594 192.652344 C 219.945312 192.753906 220.46875 192.765625 220.980469 192.832031 C 221.605469 192.914062 222.1875 193.179688 222.785156 193.472656 C 222.910156 193.042969 223.015625 192.65625 223.140625 192.277344 C 223.34375 191.644531 223.722656 191.105469 224.0625 190.542969 C 224.707031 189.472656 224.675781 188.667969 223.933594 187.71875 C 223.429688 187.082031 222.742188 186.761719 221.953125 186.992188 C 221.273438 187.191406 220.789062 187.683594 220.695312 188.445312 C 220.675781 188.605469 220.644531 188.757812 220.492188 188.9375 C 220.246094 188.824219 220.019531 188.71875 219.792969 188.617188 Z M 215.59375 183.582031 C 215.421875 183.082031 214.964844 182.773438 214.503906 182.707031 C 213.515625 182.566406 212.636719 183.976562 213.03125 184.789062 C 213.132812 184.992188 213.214844 185.207031 213.335938 185.394531 C 213.652344 185.871094 213.890625 186.378906 214.019531 186.933594 C 214.085938 187.214844 214.242188 187.269531 214.457031 187.175781 C 215.070312 186.898438 215.714844 186.855469 216.367188 186.785156 C 217.375 186.683594 217.941406 185.941406 217.835938 184.953125 C 217.773438 184.386719 217.386719 184 216.824219 183.941406 C 216.457031 183.90625 216.105469 183.96875 215.722656 184.191406 C 215.667969 183.929688 215.652344 183.75 215.59375 183.582031 Z M 215.59375 183.582031 " fill-opacity="1" fill-rule="nonzero"/></svg>